<svg xmlns="http://www.w3.org/2000/svg" width="256" height="256" viewBox="0 0 256 256"><style type="text/css">.st0{fill:#673200;} .st1{fill:#FFAACA;} .st2{fill:#C65B00;} .st3{fill:none;stroke:#000000;stroke-width:3;stroke-linecap:round;stroke-linejoin:round;stroke-miterlimit:10;}</style><g id="left-ear"><circle class="st0" cx="43.9" cy="49.2" r="34.6"/><circle class="st1" cx="46.4" cy="58" r="14.8"/></g><g id="right-ear"><circle class="st0" cx="212.1" cy="49.2" r="34.6"/><circle class="st1" cx="209.6" cy="58" r="14.8"/></g><g id="face"><circle class="st0" cx="128" cy="133.2" r="108.1"/><circle class="st2" cx="128" cy="172.7" r="42.3"/><path class="st2" d="M174 35.4c-14.5 12-23.7 30.2-23.7 50.5 0 36.2 29.4 65.6 65.6 65.6 6.7 0 13.1-1 19.2-2.8.7-5 1.1-10.2 1.1-15.4-.1-43.3-25.5-80.7-62.2-97.9zm-154.1 97.8c0 5.2.4 10.4 1.1 15.4 6.1 1.8 12.5 2.8 19.2 2.8 36.2 0 65.6-29.4 65.6-65.6 0-20.3-9.2-38.5-23.7-50.5-36.8 17.3-62.2 54.7-62.2 97.9z"/><path class="st3" d="M101.2 187.1c14.6 14.6 38.1 14.6 52.7 0"/></g><circle id="nose" class="st1" cx="128" cy="138.1" r="13"/><circle id="left-eye" cx="84.8" cy="106.5" r="9.3"/><circle id="right-eye" cx="171.2" cy="106.5" r="9.3"/></svg>